<?xml version="1.0" standalone="no"?>
<!DOCTYPE svg PUBLIC "-//W3C//DTD SVG 20010904//EN"
 "http://www.w3.org/TR/2001/REC-SVG-20010904/DTD/svg10.dtd">
<svg version="1.0" xmlns="http://www.w3.org/2000/svg"
 width="100.000000pt" height="100.000000pt" viewBox="0 0 100.000000 100.000000"
 preserveAspectRatio="xMidYMid meet">

<g transform="translate(0.000000,100.000000) scale(0.100000,-0.100000)"
fill="#000000" stroke="none">
<path d="M709 751 c-8 -12 -19 -17 -33 -13 -12 3 -19 2 -16 -1 13 -14 37 -10
58 11 12 12 18 22 12 22 -5 0 -15 -8 -21 -19z"/>
<path d="M788 752 c9 -10 19 -17 21 -16 6 5 -20 34 -30 34 -5 0 -1 -8 9 -18z"/>
<path d="M614 715 c-16 -25 -17 -25 -173 -25 -109 0 -161 -4 -169 -12 -15 -15
-16 -164 -2 -173 6 -3 10 -46 10 -96 0 -82 -2 -89 -20 -89 -10 0 -24 -9 -30
-20 -6 -11 -17 -20 -24 -20 -8 0 -19 -7 -26 -15 -9 -10 -9 -15 -1 -15 6 0 11
5 11 10 0 6 7 10 16 10 9 0 24 10 33 21 15 19 31 22 114 27 l97 5 0 -37 c0
-33 -3 -36 -28 -36 -19 0 -30 7 -37 22 -6 15 -19 23 -35 24 -14 0 -32 4 -39 8
-9 6 -12 4 -9 -5 3 -8 17 -14 33 -14 17 0 32 -7 39 -20 6 -11 18 -25 26 -32
21 -17 2 -46 -36 -54 l-29 -7 27 -1 c32 -1 61 25 55 50 -5 18 4 19 137 19 97
0 146 4 154 12 8 8 12 51 12 129 0 68 4 120 10 124 15 9 13 160 -3 173 -7 6
-37 12 -67 14 l-55 3 23 23 c12 12 18 22 12 22 -5 0 -17 -11 -26 -25z m-75
-175 l34 -50 69 0 68 0 0 -80 c0 -69 -2 -80 -17 -81 -17 -1 -17 -2 0 -6 20 -5
23 -43 5 -61 -7 -7 -40 -12 -80 -12 l-68 0 0 35 c0 29 4 35 23 36 l22 2 -22 4
c-15 3 -23 12 -23 25 0 26 -27 58 -48 58 -24 0 -52 -31 -52 -57 0 -22 -3 -23
-80 -23 l-80 0 0 80 0 80 68 0 69 0 34 50 c19 27 36 50 39 50 3 0 20 -23 39
-50z m-15 -156 c11 -10 16 -34 16 -70 l0 -54 -40 0 -40 0 0 54 c0 52 16 86 40
86 5 0 16 -7 24 -16z"/>
<path d="M330 415 l0 -45 40 0 40 0 0 45 0 45 -40 0 -40 0 0 -45z m70 25 c0
-5 -8 -11 -17 -11 -17 -1 -17 -2 0 -6 9 -2 17 -13 17 -24 0 -14 -7 -19 -30
-19 -27 0 -29 3 -28 35 1 31 4 35 30 35 15 0 28 -4 28 -10z"/>
<path d="M590 415 l0 -45 40 0 40 0 0 45 0 45 -40 0 -40 0 0 -45z m70 25 c0
-5 -8 -11 -17 -11 -17 -1 -17 -2 0 -6 9 -2 17 -13 17 -24 0 -14 -7 -19 -30
-19 -27 0 -29 3 -28 35 1 31 4 35 30 35 15 0 28 -4 28 -10z"/>
<path d="M628 323 c6 -2 18 -2 25 0 6 3 1 5 -13 5 -14 0 -19 -2 -12 -5z"/>
<path d="M810 711 c0 -5 8 -7 18 -4 10 2 24 -3 31 -11 8 -9 19 -16 27 -16 7 0
20 -10 28 -22 9 -12 16 -18 16 -12 0 13 -33 44 -47 44 -6 0 -16 7 -23 15 -14
16 -50 21 -50 6z"/>
<path d="M912 610 c-10 -16 -25 -20 -80 -22 -66 -2 -66 -2 -13 -5 67 -5 97 2
105 23 9 24 2 26 -12 4z"/>
<path d="M135 231 c-14 -45 19 -66 91 -58 35 3 34 4 -12 5 -61 2 -85 22 -66
53 7 10 8 19 3 19 -5 0 -12 -8 -16 -19z"/>
</g>
</svg>
